<svg xmlns="http://www.w3.org/2000/svg" id="Layer_2" viewBox="0 0 89.45 23.25"><defs><style>.cls-1{fill:#fff;}.cls-2{fill:#f2a184;}.cls-3{fill:#33716d;}</style></defs><g id="Layer_1-2"><g><g><path class="cls-3" d="M50.95,9.52v-.12s0,0,0,0c-.1-3.08-2.64-5.55-5.74-5.55s-5.75,2.58-5.75,5.75,2.58,5.75,5.75,5.75c1.49,0,2.85-.57,3.88-1.51v4.85s1.87,0,1.87,0V9.67s0-.05,0-.08,0-.05,0-.07Zm-5.75,3.95c-2.14,0-3.88-1.74-3.88-3.88s1.74-3.88,3.88-3.88,3.84,1.7,3.88,3.8v.15c-.04,2.1-1.76,3.8-3.88,3.8Z"></path><path class="cls-3" d="M71.89,3.85c-3.17,0-5.75,2.58-5.75,5.75,0,.09,0,.18,0,.27l.03,8.77h1.87s-.02-4.79-.02-4.79c1.02,.93,2.37,1.49,3.86,1.49,3.17,0,5.75-2.58,5.75-5.75s-2.58-5.75-5.75-5.75Zm0,9.62c-2.06,0-3.76-1.62-3.87-3.66v-.42h0c.1-2.05,1.8-3.68,3.87-3.68s3.88,1.74,3.88,3.88-1.74,3.88-3.88,3.88Z"></path><path class="cls-3" d="M62.59,4.6h-1.87v5h0c0,2.14-1.74,3.87-3.88,3.87s-3.77-1.63-3.87-3.67V4.59h-1.87v5h0c0,.07,0,.14,0,.21v.16h0c.2,2.99,2.69,5.37,5.73,5.37s5.75-2.58,5.75-5.75h0V4.6Z"></path><path class="cls-3" d="M89.45,9.6V4.6h-1.87v5h0c0,2.14-1.74,3.87-3.88,3.87s-3.77-1.63-3.87-3.67V4.59h-1.87v5h0c0,.07,0,.14,0,.21v.16h0c.2,2.99,2.69,5.37,5.73,5.37s5.75-2.58,5.75-5.75h0Z"></path><polygon class="cls-3" points="63.4 6.55 63.4 14.94 65.27 14.94 65.27 6.55 65.27 4.55 63.4 4.55 63.4 6.55"></polygon></g><g><path class="cls-2" d="M8.48,9.61c-.99-2.03-.86-4.31,.15-6.15L.41,13.99c-.65,.84-.5,2.04,.33,2.7,.35,.27,.77,.41,1.18,.41,.57,0,1.14-.25,1.52-.74l5.13-6.57c-.03-.06-.06-.12-.09-.18Z"></path><path class="cls-2" d="M8.71,10.05l-3.53,8.64c-.4,.98,.07,2.1,1.05,2.51,.24,.1,.48,.14,.73,.14,.76,0,1.48-.45,1.78-1.2l3.01-7.37c-1.24-.55-2.31-1.48-3.04-2.72Z"></path><path class="cls-2" d="M23.61,18.86l-3.45-8.69c-.64,1.05-1.58,1.93-2.76,2.51-.11,.05-.21,.1-.32,.15l2.96,7.45c.3,.75,1.02,1.21,1.79,1.21,.24,0,.48-.04,.71-.14,.99-.39,1.47-1.51,1.08-2.5Z"></path><path class="cls-2" d="M12.55,13.07v8.25c0,1.06,.86,1.92,1.92,1.92s1.92-.86,1.92-1.92V13.08c-1.28,.39-2.62,.37-3.84,0Z"></path></g><g><path class="cls-3" d="M28.49,14.39L20.27,3.36C18.54,.33,14.73-.87,11.54,.68c-3.31,1.62-4.69,5.62-3.07,8.93,1.62,3.31,5.62,4.69,8.93,3.07,1.29-.63,2.29-1.62,2.93-2.8l5.08,6.81c.38,.51,.96,.77,1.54,.77,.4,0,.8-.12,1.15-.38,.85-.63,1.03-1.84,.39-2.69Zm-11.1-5.81c-.52,.78-1.31,1.3-2.22,1.48-.23,.05-.46,.07-.69,.07-.68,0-1.35-.2-1.93-.59-1.6-1.07-2.03-3.24-.96-4.84,.52-.78,1.31-1.3,2.22-1.48,.91-.18,1.85,0,2.62,.52,.78,.52,1.3,1.31,1.48,2.22,.18,.91,0,1.85-.52,2.62Z"></path><path class="cls-3" d="M16.42,3.75c-1.6-1.07-3.76-.64-4.82,.96-1.07,1.6-.64,3.76,.96,4.82s3.76,.64,4.82-.96c1.07-1.6,.64-3.76-.96-4.82Zm.95,4.82c-.51,.77-1.3,1.29-2.2,1.47-.91,.18-1.83,0-2.6-.52-1.59-1.06-2.02-3.22-.95-4.8,.51-.77,1.3-1.29,2.2-1.47,.23-.05,.46-.07,.68-.07,.68,0,1.34,.2,1.92,.59,.77,.51,1.29,1.3,1.47,2.2,.18,.91,0,1.83-.52,2.6Z"></path></g><path class="cls-1" d="M17.31,8.58c-.51,.77-1.3,1.29-2.2,1.47-.91,.18-1.83,0-2.6-.52-1.59-1.06-2.02-3.22-.95-4.8,.51-.77,1.3-1.29,2.2-1.47,.23-.05,.46-.07,.68-.07,.68,0,1.34,.2,1.92,.59,.77,.51,1.29,1.3,1.47,2.2,.18,.91,0,1.83-.52,2.6Z"></path></g></g></svg>